<?xml version="1.0" encoding="UTF-8" standalone="no"?>
<svg xmlns="http://www.w3.org/2000/svg" xmlns:xlink="http://www.w3.org/1999/xlink" version="1.1" width="400" height="400" viewBox="760 266.5 400 400"><g id="document" fill="#ffffff" fill-rule="nonzero" stroke="#000000" stroke-width="0" stroke-linecap="butt" stroke-linejoin="miter" stroke-miterlimit="10" font-family="none" font-weight="none" font-size="none"><rect x="1330" y="466.375" transform="scale(0.57143,0.57143)" width="700" height="700" id="Shape-1-1"/></g><g fill="none" fill-rule="nonzero" stroke="none" stroke-width="1" stroke-linecap="none" stroke-linejoin="none" stroke-miterlimit="10" font-family="none" font-weight="none" font-size="none"><g id="stage"><g id="layer1-1" stroke="#000000" stroke-linecap="round" stroke-linejoin="round"><path d="M849.5,384.5c0,-61.02746 49.47254,-110.5 110.5,-110.5c61.02746,0 110.5,49.47254 110.5,110.5c0,61.02746 -49.47254,110.5 -110.5,110.5c-61.02746,0 -110.5,-49.47254 -110.5,-110.5z" id="Path-1" fill-opacity="0" fill="#000000"/><path d="M832.5,572v-77h255v77z" id="Path-1-1" fill="#000000"/><path d="M888.07692,461.92308c0,-6.90356 5.59644,-12.5 12.5,-12.5c6.90356,0 12.5,5.59644 12.5,12.5c0,6.90356 -5.59644,12.5 -12.5,12.5c-6.90356,0 -12.5,-5.59644 -12.5,-12.5z" id="Path-1-2" fill-opacity="0" fill="#000000"/><path d="M910,449.42308c0,-6.90356 5.59644,-12.5 12.5,-12.5c6.90356,0 12.5,5.59644 12.5,12.5c0,6.90356 -5.59644,12.5 -12.5,12.5c-6.90356,0 -12.5,-5.59644 -12.5,-12.5z" id="Path-5417-1" fill-opacity="0" fill="#000000"/><path d="M1006.92308,461.92308c0,-6.90356 5.59644,-12.5 12.5,-12.5c6.90356,0 12.5,5.59644 12.5,12.5c0,6.90356 -5.59644,12.5 -12.5,12.5c-6.90356,0 -12.5,-5.59644 -12.5,-12.5z" id="Path-5417-1-1" fill-opacity="0" fill="#000000"/><path d="M935,479c0,-6.90356 5.59644,-12.5 12.5,-12.5c6.90356,0 12.5,5.59644 12.5,12.5c0,6.90356 -5.59644,12.5 -12.5,12.5c-6.90356,0 -12.5,-5.59644 -12.5,-12.5z" id="Path-5417-1-2" fill-opacity="0" fill="#000000"/><path d="M960,482.5c0,-6.90356 5.59644,-12.5 12.5,-12.5c6.90356,0 12.5,5.59644 12.5,12.5c0,6.90356 -5.59644,12.5 -12.5,12.5c-6.90356,0 -12.5,-5.59644 -12.5,-12.5z" id="Path-5417-1-3" fill-opacity="0" fill="#000000"/><path d="M935,454c0,-6.90356 5.59644,-12.5 12.5,-12.5c6.90356,0 12.5,5.59644 12.5,12.5c0,6.90356 -5.59644,12.5 -12.5,12.5c-6.90356,0 -12.5,-5.59644 -12.5,-12.5z" id="Path-5417-1-4" fill-opacity="0" fill="#000000"/><path d="M910,474.42308c0,-6.90356 5.59644,-12.5 12.5,-12.5c6.90356,0 12.5,5.59644 12.5,12.5c0,6.90356 -5.59644,12.5 -12.5,12.5c-6.90356,0 -12.5,-5.59644 -12.5,-12.5z" id="Path-5417-1-5" fill-opacity="0" fill="#000000"/><path d="M960,457.5c0,-6.90356 5.59644,-12.5 12.5,-12.5c6.90356,0 12.5,5.59644 12.5,12.5c0,6.90356 -5.59644,12.5 -12.5,12.5c-6.90356,0 -12.5,-5.59644 -12.5,-12.5z" id="Path-5417-1-6" fill-opacity="0" fill="#000000"/><path d="M985,449.42308c0,-6.90356 5.59644,-12.5 12.5,-12.5c6.90356,0 12.5,5.59644 12.5,12.5c0,6.90356 -5.59644,12.5 -12.5,12.5c-6.90356,0 -12.5,-5.59644 -12.5,-12.5z" id="Path-5417-1-7" fill-opacity="0" fill="#000000"/><path d="M985,474.42308c0,-6.90356 5.59644,-12.5 12.5,-12.5c6.90356,0 12.5,5.59644 12.5,12.5c0,6.90356 -5.59644,12.5 -12.5,12.5c-6.90356,0 -12.5,-5.59644 -12.5,-12.5z" id="Path-5417-1-8" fill-opacity="0" fill="#000000"/><path d="M835.5,595.83071c0,-6.90356 5.59644,-12.5 12.5,-12.5c6.90356,0 12.5,5.59644 12.5,12.5c0,6.90356 -5.59644,12.5 -12.5,12.5c-6.90356,0 -12.5,-5.59644 -12.5,-12.5z" id="Path-11840-1" fill-opacity="0" fill="#000000"/><path d="M864.5,595.83071c0,-6.90356 5.59644,-12.5 12.5,-12.5c6.90356,0 12.5,5.59644 12.5,12.5c0,6.90356 -5.59644,12.5 -12.5,12.5c-6.90356,0 -12.5,-5.59644 -12.5,-12.5z" id="Path-11840-1-1" fill-opacity="0" fill="#000000"/><path d="M893.5,595.83071c0,-6.90356 5.59644,-12.5 12.5,-12.5c6.90356,0 12.5,5.59644 12.5,12.5c0,6.90356 -5.59644,12.5 -12.5,12.5c-6.90356,0 -12.5,-5.59644 -12.5,-12.5z" id="Path-11840-1-2" fill-opacity="0" fill="#000000"/><path d="M922.5,595.83071c0,-6.90356 5.59644,-12.5 12.5,-12.5c6.90356,0 12.5,5.59644 12.5,12.5c0,6.90356 -5.59644,12.5 -12.5,12.5c-6.90356,0 -12.5,-5.59644 -12.5,-12.5z" id="Path-11840-1-3" fill-opacity="0" fill="#000000"/></g><g id="Layer2-1"><text x="941.94" y="460" id="PointText-1" fill="#010100" stroke="none" stroke-linecap="butt" stroke-linejoin="miter" font-family="font-Archivo-Bold" font-weight="normal" font-size="20" text-anchor="start">1</text><text x="895.01692" y="467.92308" id="PointText-1-1" fill="#010100" stroke="none" stroke-linecap="butt" stroke-linejoin="miter" font-family="font-Archivo-Bold" font-weight="normal" font-size="20" text-anchor="start">2</text><text x="916.94" y="454.71532" id="PointText-1-2" fill="#010100" stroke="none" stroke-linecap="butt" stroke-linejoin="miter" font-family="font-Archivo-Bold" font-weight="normal" font-size="20" text-anchor="start">3</text><text x="1013.86308" y="467.92308" id="PointText-1-3" fill="#010100" stroke="none" stroke-linecap="butt" stroke-linejoin="miter" font-family="font-Archivo-Bold" font-weight="normal" font-size="20" text-anchor="start">4</text><text x="991.94" y="455.92308" id="PointText-1-4" fill="#010100" stroke="none" stroke-linecap="butt" stroke-linejoin="miter" font-family="font-Archivo-Bold" font-weight="normal" font-size="20" text-anchor="start">5</text><text x="991.94" y="480.42308" id="PointText-1-5" fill="#010100" stroke="none" stroke-linecap="butt" stroke-linejoin="miter" font-family="font-Archivo-Bold" font-weight="normal" font-size="20" text-anchor="start">6</text><text x="966.94" y="463.5" id="PointText-1-6" fill="#010100" stroke="none" stroke-linecap="butt" stroke-linejoin="miter" font-family="font-Archivo-Bold" font-weight="normal" font-size="20" text-anchor="start">7</text><text x="966.94" y="488.5" id="PointText-1-7" fill="#010100" stroke="none" stroke-linecap="butt" stroke-linejoin="miter" font-family="font-Archivo-Bold" font-weight="normal" font-size="20" text-anchor="start">8</text><text x="941.94" y="485" id="PointText-1-8" fill="#010100" stroke="none" stroke-linecap="butt" stroke-linejoin="miter" font-family="font-Archivo-Bold" font-weight="normal" font-size="20" text-anchor="start">9</text><text x="911.38" y="479.92308" id="PointText-1-9" fill="#010100" stroke="none" stroke-linecap="butt" stroke-linejoin="miter" font-family="font-Archivo-Bold" font-weight="normal" font-size="20" text-anchor="start">10</text><text x="841.33001" y="601.83071" id="PointText-1-10" fill="#010100" stroke="none" stroke-linecap="butt" stroke-linejoin="miter" font-family="font-Archivo-Bold" font-weight="normal" font-size="20" text-anchor="start">X</text><text x="870.33001" y="601.83071" id="PointText-28208-1" fill="#010100" stroke="none" stroke-linecap="butt" stroke-linejoin="miter" font-family="font-Archivo-Bold" font-weight="normal" font-size="20" text-anchor="start">X</text><text x="899.33001" y="601.83071" id="PointText-28208-1-1" fill="#010100" stroke="none" stroke-linecap="butt" stroke-linejoin="miter" font-family="font-Archivo-Bold" font-weight="normal" font-size="20" text-anchor="start">X</text><text x="928.33001" y="601.83071" id="PointText-28208-1-2" fill="#010100" stroke="none" stroke-linecap="butt" stroke-linejoin="miter" font-family="font-Archivo-Bold" font-weight="normal" font-size="20" text-anchor="start">X</text><text x="856.64008" y="402.5" id="PointText-1-11" fill="#010100" stroke="none" stroke-linecap="butt" stroke-linejoin="miter" font-family="font-Archivo-Bold" font-weight="normal" font-size="20" text-anchor="start">Kugeln insgesamt: 10</text><text x="960" y="601.83071" id="PointText-1-12" fill="#010100" stroke="none" stroke-linecap="butt" stroke-linejoin="miter" font-family="font-Archivo-Bold" font-weight="normal" font-size="20" text-anchor="start">Gezogene Kugeln: 4</text><text x="878.20007" y="641.60379" id="PointText-1-13" fill="#010100" stroke="none" stroke-linecap="butt" stroke-linejoin="miter" font-family="font-Archivo-Bold" font-weight="normal" font-size="20" text-anchor="start">Tippzettel: 3,4,7,10</text><path d="M795.11846,423.1621" id="Path-1-3" fill-opacity="0" fill="#000000" stroke="#000000" stroke-linecap="round" stroke-linejoin="round"/><path d="M841.16652,436.70565" id="Path-1-4" fill-opacity="0" fill="#000000" stroke="#000000" stroke-linecap="round" stroke-linejoin="round"/><path d="M863.37793,460.00054" id="Path-1-5" fill-opacity="0" fill="#000000" stroke="#000000" stroke-linecap="round" stroke-linejoin="round"/><path d="M844.55023,446.68387" id="Path-1-6" fill-opacity="0" fill="#000000" stroke="#000000" stroke-linecap="round" stroke-linejoin="round"/><path d="M864.81406,465.15972" id="Path-1-7" fill-opacity="0" fill="#000000" stroke="#000000" stroke-linecap="round" stroke-linejoin="round"/><path d="M864.81406,462.77574" id="Path-1-8" fill-opacity="0" fill="#000000" stroke="#000000" stroke-linecap="round" stroke-linejoin="round"/><path d="M861.23809,462.77574" id="Path-1-9" fill-opacity="0" fill="#000000" stroke="#000000" stroke-linecap="round" stroke-linejoin="round"/><path d="M873.41042,464.62231" id="Path-1-10" fill-opacity="0" fill="#000000" stroke="#000000" stroke-linecap="round" stroke-linejoin="round"/><path d="M866.39536,468.48059" id="Path-1-11" fill-opacity="0" fill="#000000" stroke="#000000" stroke-linecap="round" stroke-linejoin="round"/><path d="M872.35816,467.07758l-103.47212,60.68026l52.96369,49.45617" id="Path-1-12" fill-opacity="0" fill="#000000" stroke="#ff0000" stroke-linecap="round" stroke-linejoin="round"/><path d="M810.09722,581.00818l13.71214,-15.41962l8.56608,23.2509z" id="Path-1-13" fill="#ff0000" stroke="#ff0000" stroke-linecap="round" stroke-linejoin="round"/></g></g></g></svg>